<svg xmlns="http://www.w3.org/2000/svg" viewBox="0 0 64 64">
  <rect width="64" height="64" rx="16" fill="#1E40AF"/>
  <path d="M219 276Q197 276 178.5 265.0Q160 254 150 235Q140 254 121.5 265.0Q103 276 80.5 275.5Q58 275 39.0 263.0Q20 251 9.5 231.0Q-1 211 0 188Q0 149 36 102Q64 66 110 27Q127 12 150.0 12.0Q173 12 190 27Q236 66 264 102Q300 149 300 188Q301 211 290.5 231.0Q280 251 261.0 263.0Q242 275 219 276ZM174 46Q164 37 150.0 37.0Q136 37 126 46Q78 86 51.5 123.5Q25 161 25 188Q24 204 31.5 218.0Q39 232 52.0 241.0Q65 250 81.0 250.0Q97 250 110.5 241.0Q124 232 131.0 218.0Q138 204 138 188Q138 183 141.5 179.0Q145 175 150.0 175.0Q155 175 158.5 179.0Q162 183 163 188Q162 204 169.0 218.0Q176 232 189.5 241.0Q203 250 219.0 250.0Q235 250 248.0 241.0Q261 232 268.5 218.0Q276 204 275 188Q275 161 248.5 123.5Q222 86 174 46Z" transform="matrix(0.125828 0 0 -0.125828 13.125828 49.427152)" fill="#FFFFFF"/>
</svg>
